<svg xmlns="http://www.w3.org/2000/svg" width="160" height="29" viewBox="0 0 160 29">
    <g fill="#000000" fill-rule="evenodd">
        <path d="M11.17 0C6.551.08 2.525 2.209.04 5.943l4.617 3.533c1.54-2.409 3.947-3.694 6.552-3.694 3.607 0 6.384 2.361 7.454 5.441H8.09l1.381 5.662h9.205c-1.104 3.23-4.053 5.44-7.468 5.44-2.724 0-5.17-1.364-6.552-3.653L0 22.165c2.645 3.855 6.749 5.943 11.17 5.943 8.288 0 13.695-6.385 13.695-14.094C24.865 5.983 18.51 0 11.169 0M42.672 21.526H35.08v-5.342h7.593c1.519 0 2.61 1.196 2.61 2.672-.117 1.594-1.169 2.67-2.61 2.67zM35.08 5.501h7.438c1.48 0 2.57 1.196 2.57 2.671 0 1.554-1.208 2.63-2.57 2.63h-7.438V5.502zm13.318 7.813c1.518-1.555 2.298-3.468 2.298-5.5 0-4.665-3.856-7.814-8.14-7.814H28.109l1.363 5.62v21.407h13.006c4.596 0 8.295-3.308 8.334-8.052 0-2.352-.778-4.226-2.414-5.66zM83.585 5.62h6.421v21.407h5.893V5.621h6.462L103.784 0H82.162zM150.158 14.05h-5.92V5.654h5.92c2.392 0 4.118 1.83 4.118 4.179-.158 2.508-1.726 4.219-4.118 4.219M150.041 0h-12.744l1.255 5.135v21.892h5.686v-7.364h5.803c5.763 0 9.959-3.86 9.959-9.712 0-5.97-4.274-9.871-9.959-9.951M70.29 7.568c-8.02.161-14.074 6.067-14.074 14.118 0 2.352.546 4.523 1.5 6.422h7.199a8.511 8.511 0 0 1-2.885-6.382c0-4.733 3.69-8.333 8.26-8.333 4.651 0 8.26 3.762 8.26 8.333a8.373 8.373 0 0 1-2.957 6.382h7.225a14.247 14.247 0 0 0 1.506-6.382c0-7.97-6.375-14.158-14.034-14.158M125.807 0c2.165 1.554 3.554 4.154 3.554 7.075 0 4.794-3.809 8.628-8.3 8.628-4.771 0-8.22-4.085-8.22-8.628 0-2.996 1.394-5.55 3.528-7.075h-7.683c-1.064 2.052-1.659 4.434-1.659 7.034 0 8.419 6.576 14.588 14.074 14.588 8.06 0 14.034-6.753 14.034-14.547 0-2.588-.634-4.993-1.741-7.075h-7.587z"/>
    </g>
</svg>
